<?xml version="1.0" standalone="no"?>
<!DOCTYPE svg PUBLIC "-//W3C//DTD SVG 20010904//EN"
 "http://www.w3.org/TR/2001/REC-SVG-20010904/DTD/svg10.dtd">
<svg version="1.0" xmlns="http://www.w3.org/2000/svg"
 width="400.000000pt" height="400.000000pt" viewBox="0 0 400.000000 400.000000"
 preserveAspectRatio="xMidYMid meet">
<metadata>
Created by potrace 1.14, written by Peter Selinger 2001-2017
</metadata>
<g transform="translate(0.000000,400.000000) scale(0.100000,-0.100000)"
fill="#000000" stroke="none">
<path d="M710 3985 c-171 -21 -292 -67 -398 -152 -188 -151 -275 -316 -299
-563 -10 -103 -11 -2438 -1 -2530 18 -165 40 -241 104 -350 66 -115 176 -222
294 -288 94 -52 184 -76 335 -90 105 -9 2417 -9 2515 0 223 22 367 85 505 223
132 133 199 281 222 495 11 99 10 2443 0 2544 -23 215 -83 348 -218 484 -121
123 -259 194 -431 223 -108 18 -2480 22 -2628 4z"/>
</g>
</svg>
